<svg xmlns="http://www.w3.org/2000/svg" viewBox="0 0 169.73 154.73"><defs><style>.cls-1{fill:none;stroke:#fff;stroke-miterlimit:10;stroke-width:10.72px;}</style></defs><title>analytics</title><g id="Capa_2" data-name="Capa 2"><g id="Capa_1-2" data-name="Capa 1"><path class="cls-1" d="M64.79,77.36V11.63c0-4.42,1.84-6.27,6.22-6.27H99.94c4,0,6,2,6,6q0,66,0,132c0,4-2,6-6,6H70.7c-3.91,0-5.91-2-5.91-5.94Z"/><path class="cls-1" d="M123.22,98V52.65c0-4.28,1.88-6.15,6.19-6.15H158.5c3.83,0,5.86,2,5.86,5.82q0,45.65,0,91.29c0,3.69-2.07,5.74-5.78,5.74H129c-3.73,0-5.78-2-5.79-5.74Z"/><path class="cls-1" d="M46.5,118.54q0,12.45,0,24.91c0,3.91-2,5.91-5.94,5.91H11.31c-3.95,0-5.95-2-5.95-5.9v-50c0-3.84,2-5.83,5.86-5.83H40.63c3.83,0,5.87,2,5.87,5.82Q46.52,106,46.5,118.54Z"/></g></g></svg>