<svg xmlns="http://www.w3.org/2000/svg" viewBox="0 0 158.59 174.38"><defs><style>.cls-1{fill:#fefefe;}</style></defs><title>calendar</title><g id="Capa_2" data-name="Capa 2"><g id="Capa_1-2" data-name="Capa 1"><path class="cls-1" d="M158.58,40a24.74,24.74,0,0,0-.6-5.62,23.74,23.74,0,0,0-23.4-18.52c-5,0-9.91,0-14.86,0-.65,0-.83-.16-.82-.82q.06-3.57,0-7.15a7.92,7.92,0,1,0-15.83.1c0,2.39,0,4.77,0,7.16,0,.57-.14.71-.71.71q-23.09,0-46.17,0c-.58,0-.72-.14-.71-.71,0-2.33,0-4.65,0-7a7.92,7.92,0,1,0-15.84-.1c0,2.29,0,4.58,0,6.87,0,.74-.19.92-.92.91-5.14,0-10.28-.09-15.42,0A23.09,23.09,0,0,0,6,23.85,23.52,23.52,0,0,0,0,40.08v109.8a25.29,25.29,0,0,0,1.18,8.05,23.73,23.73,0,0,0,23,16.44h110a25,25,0,0,0,5.53-.51,23.76,23.76,0,0,0,18.85-23.62Q158.61,95.13,158.58,40ZM15.85,40.1a8.17,8.17,0,0,1,8.46-8.44c4.83.08,9.66,0,14.49,0,.67,0,.9.14.89.86,0,2.32,0,4.64,0,7a7.92,7.92,0,1,0,15.84-.07c0-2.32,0-4.64,0-7,0-.56.08-.8.74-.8q23,0,46.07,0c.59,0,.79.13.78.76,0,2.35,0,4.71,0,7.06a7.92,7.92,0,0,0,15.7,1.61,23.39,23.39,0,0,0,.13-4.35c0-1.46,0-2.91,0-4.37,0-.49.09-.71.65-.71,5.14,0,10.29-.06,15.42.05a7.77,7.77,0,0,1,7.71,8c0,7.64,0,15.29,0,22.94,0,.84-.39.77-.94.77H79.27q-31.17,0-62.34,0c-.79,0-1.07-.13-1.07-1C15.91,55,16,47.53,15.85,40.1ZM142.7,150.23a7.88,7.88,0,0,1-6.78,8.22,9.12,9.12,0,0,1-1.48.08H24.17a7.87,7.87,0,0,1-8.28-8.27q0-35,0-70c0-.86.25-1,1-1q31.22,0,62.43,0h62.33c.72,0,1.07,0,1.06,1Q142.68,115.22,142.7,150.23Z"/></g></g></svg>