<svg xmlns="http://www.w3.org/2000/svg" viewBox="0 0 156.9 170.1"><defs><style>.cls-1{fill:#fefefe;}</style></defs><title>euro</title><g id="Capa_2" data-name="Capa 2"><g id="Capa_1-2" data-name="Capa 1"><path class="cls-1" d="M100.66,170.1c-4.24-.71-8.55-1.15-12.72-2.18a66.86,66.86,0,0,1-27.75-14.65c-11.82-10.18-19.89-22.86-24.92-37.56-.23-.67-.48-1.34-.75-2.07H10.73a17.32,17.32,0,0,1-3-.22,9.36,9.36,0,0,1-7.74-10A9.21,9.21,0,0,1,8.9,94.71c6.53-.15,13.06-.06,19.59-.08h2.05V74.42H29c-6.31,0-12.62,0-18.92,0S-.47,69.85,0,63.81c.36-4.2,4-8.1,8.19-8.26,6.47-.23,13-.14,19.42-.18,1.88,0,3.77-.09,5.64,0a1.92,1.92,0,0,0,2.25-1.59,82.93,82.93,0,0,1,9.73-19.9C55.48,18.61,69,7.46,86.86,2.52c19.19-5.3,37.32-2.18,53.93,8.72,4.72,3.1,8.94,7,13.13,10.87a9.16,9.16,0,0,1,1.89,11.12,9,9,0,0,1-9.94,5,14.14,14.14,0,0,1-5.34-2.73c-3.79-2.85-7.12-6.39-11.14-8.85-15.66-9.6-31.85-10.16-48-1.4C69.26,31.74,61.18,42,55.63,54.44a5.9,5.9,0,0,0-.23.91h2.19q28.22,0,56.45,0c3.84,0,7.1,1.1,9.23,4.48,4,6.33-.3,14.11-8,14.59-.55,0-1.11,0-1.66,0H50.24C49.14,77.74,49,89.9,50,94.62h2.08q31,0,62.1,0c4.09,0,7.37,1.35,9.38,5.05a9.4,9.4,0,0,1-6.22,13.67,16,16,0,0,1-3.46.3q-28.47,0-56.95,0h-2a1.55,1.55,0,0,0,0,.54C60.33,127,68.37,137.6,80.59,144.55c14.55,8.28,29.49,8.7,44.62,1.46a54.83,54.83,0,0,0,15-11.07,9.44,9.44,0,0,1,9.84-2.75c6.31,1.8,9,9.61,4.83,14.7a60.83,60.83,0,0,1-15.28,12.89,65.59,65.59,0,0,1-30.05,10.06,4.53,4.53,0,0,0-.94.26Z"/></g></g></svg>