<svg xmlns="http://www.w3.org/2000/svg" viewBox="0 0 173.33 139.38"><defs><style>.cls-1{fill:#fefefe;}</style></defs><title>menu</title><g id="Capa_2" data-name="Capa 2"><g id="Capa_1-2" data-name="Capa 1"><path class="cls-1" d="M9.63,139.38H163.7c5.31,0,9.63-5.2,9.63-11.61h0c0-6.42-4.32-11.62-9.63-11.62H9.63c-5.32,0-9.63,5.2-9.63,11.62H0C0,134.18,4.31,139.38,9.63,139.38Zm0-58.07H163.7c5.31,0,9.63-5.2,9.63-11.62h0c0-6.41-4.32-11.61-9.63-11.61H9.63C4.31,58.08,0,63.28,0,69.69H0C0,76.11,4.31,81.31,9.63,81.31ZM0,11.62H0C0,18,4.31,23.23,9.63,23.23H163.7c5.31,0,9.63-5.2,9.63-11.61h0C173.33,5.2,169,0,163.7,0H9.63C4.31,0,0,5.2,0,11.62Z"/></g></g></svg>