<svg xmlns="http://www.w3.org/2000/svg" viewBox="0 0 163.41 163.41"><defs><style>.cls-1{fill:#fefefe;}</style></defs><title>search</title><g id="Capa_2" data-name="Capa 2"><g id="Capa_1-2" data-name="Capa 1"><path class="cls-1" d="M115.93,105.4h0a9.27,9.27,0,0,1-6.41-2.58h0a62.36,62.36,0,1,0-6.7,6.7h0a9.27,9.27,0,0,1,2.58,6.41h0a9.28,9.28,0,0,0,2.72,6.56l38,38a10.1,10.1,0,0,0,14.28,0h0a10.1,10.1,0,0,0,0-14.28l-38-38A9.28,9.28,0,0,0,115.93,105.4Zm-53.09,0A43.12,43.12,0,1,1,105.4,62.84,43.06,43.06,0,0,1,62.84,105.4Z"/></g></g></svg>