<svg xmlns="http://www.w3.org/2000/svg" viewBox="0 0 171.05 175.55"><defs><style>.cls-1{fill:none;stroke:#fff;stroke-miterlimit:10;stroke-width:10.72px;}</style></defs><title>settings</title><g id="Capa_2" data-name="Capa 2"><g id="Capa_1-2" data-name="Capa 1"><path class="cls-1" d="M146.78,95.85a64.16,64.16,0,0,0,.57-8.08,64,64,0,0,0-.57-8.07l17.39-13.6a4.17,4.17,0,0,0,1-5.28L148.67,32.31a4.14,4.14,0,0,0-5-1.82l-20.53,8.25a60.07,60.07,0,0,0-13.92-8.08L106.06,8.82a4,4,0,0,0-4-3.46h-33a4,4,0,0,0-4,3.46L61.89,30.66A63.14,63.14,0,0,0,48,38.74L27.44,30.49a4,4,0,0,0-5,1.82L5.93,60.82a4.07,4.07,0,0,0,1,5.28L24.31,79.7a65.08,65.08,0,0,0-.58,8.07,65.38,65.38,0,0,0,.58,8.08L6.92,109.45a4.15,4.15,0,0,0-1,5.27l16.48,28.52a4.15,4.15,0,0,0,5,1.81L48,136.81a60.14,60.14,0,0,0,13.93,8.08L65,166.73a4,4,0,0,0,4,3.46h33a4,4,0,0,0,4-3.46l3.14-21.84a63.47,63.47,0,0,0,13.92-8.08l20.53,8.24a4,4,0,0,0,5-1.81l16.49-28.52a4.16,4.16,0,0,0-1-5.27ZM85.54,116.62a28.85,28.85,0,1,1,28.85-28.85A28.88,28.88,0,0,1,85.54,116.62Z"/></g></g></svg>