<svg xmlns="http://www.w3.org/2000/svg" viewBox="0 0 177.96 177.96"><defs><style>.cls-1{fill:#fefefe;}</style></defs><title>time</title><g id="Capa_2" data-name="Capa 2"><g id="Capa_1-2" data-name="Capa 1"><path class="cls-1" d="M88.89,0A89,89,0,1,0,178,89,88.93,88.93,0,0,0,88.89,0ZM89,160.16A71.18,71.18,0,1,1,160.16,89,71.16,71.16,0,0,1,89,160.16ZM87,44.49h-.56a6.39,6.39,0,0,0-6.4,6.39V94.26a6.39,6.39,0,0,0,3.11,5.48l38.16,22.9a6.39,6.39,0,0,0,8.75-2.15h0a6.39,6.39,0,0,0-2.19-8.83L96.56,93.06a6.39,6.39,0,0,1-3.13-5.5V50.88A6.39,6.39,0,0,0,87,44.49Z"/></g></g></svg>